<svg width="59" height="44" viewBox="0 0 59 44" fill="none" xmlns="http://www.w3.org/2000/svg">
<g opacity="0.25">
<path d="M0 19.9275H14.2836C14.0394 30.3374 11.0868 31.5191 7.37854 31.8564L5.94851 32.0336V43.4804L7.59685 43.392C12.4392 43.1196 17.7929 42.2467 21.3647 37.8373C24.4957 33.972 25.876 27.657 25.876 17.963V0H0V19.9275Z" fill="white"/>
<path d="M33.124 0V19.9275H47.2169C46.9727 30.3374 44.1156 31.5191 40.4073 31.8564L39.0725 32.0336V43.4804L40.6256 43.392C45.468 43.1196 50.8696 42.2467 54.4414 37.8373C57.5721 33.972 59 27.657 59 17.963V0H33.124Z" fill="white"/>
</g>
</svg>
