<svg width="60" height="59" viewBox="0 0 60 59" fill="none" xmlns="http://www.w3.org/2000/svg">
<path fill-rule="evenodd" clip-rule="evenodd" d="M11.2476 42.0709L14.1082 38.5851C14.5137 38.0919 15.2578 38.0135 15.7629 38.4122L29.7879 49.5416C30.2894 49.9403 30.3691 50.672 29.9637 51.1687L27.1031 54.6545C26.6941 55.1477 25.9535 55.2261 25.4484 54.8274L11.4234 43.698C10.9219 43.2993 10.8422 42.5676 11.2476 42.0709Z" fill="#542C85"/>
<path fill-rule="evenodd" clip-rule="evenodd" d="M12.4828 15.4944C17.3062 15.4944 21.2156 19.3386 21.2156 24.0816C21.2156 28.8247 17.3062 32.6689 12.4828 32.6689C7.65937 32.6689 3.75 28.8247 3.75 24.0828C3.75 19.3398 7.65937 15.4944 12.4828 15.4944Z" fill="#542C85"/>
<path fill-rule="evenodd" clip-rule="evenodd" d="M30.6 19.7051L28.4684 16.1386L39.0117 8.57573L43.9805 12.5617L50.1891 8.24616L48.798 6.65592L56.3977 5.84583L54.4617 13.1194L53.0332 11.49L44.2066 17.9512L38.8617 14.1784L30.6 19.7051Z" fill="#542C85"/>
<path d="M29.8699 20.0715L27.7641 16.5442C27.5449 16.1755 27.6574 15.7042 28.0137 15.4691L38.5301 7.92698C38.8359 7.70804 39.2473 7.72763 39.5262 7.95349L44.0145 11.55L48.9809 8.10099L48.177 7.18257C47.7387 6.68245 48.0703 5.92536 48.7113 5.85622L56.3121 5.04612C56.8699 4.98735 57.3551 5.49323 57.1793 6.08784L55.2527 13.32C55.0863 13.9537 54.266 14.13 53.8441 13.6461L52.9102 12.5813L44.6953 18.5977C44.393 18.8201 43.9875 18.804 43.7051 18.5873L38.8488 15.1579L31.0629 20.3711C30.6539 20.6431 30.0961 20.5025 29.8699 20.0715ZM29.5477 16.3575L30.8637 18.5562L38.4012 13.5124V13.5159C38.6766 13.3292 39.0527 13.3234 39.3375 13.5251L44.1973 16.9579L52.5422 10.8459C52.8809 10.5947 53.3695 10.6396 53.652 10.9634L54.0633 11.4336L55.3055 6.76888L50.4328 7.28858L50.8617 7.78179C51.1207 8.14478 51.0316 8.6472 50.6625 8.90187L44.4492 13.2174C44.1574 13.4202 43.7555 13.4167 43.4625 13.1851L38.9813 9.58866L29.5477 16.3575ZM23.8043 5.26392C23.8043 4.81681 24.1699 4.45728 24.6246 4.45728C25.077 4.45728 25.4449 4.81681 25.4449 5.26392V22.9547H49.3055C49.7602 22.9547 50.1258 23.3142 50.1258 23.7613C50.1258 24.2061 49.7602 24.568 49.3055 24.568H24.6246C24.1699 24.568 23.8043 24.205 23.8043 23.7613V5.26392ZM9.25781 26.2481C9.21797 25.8067 9.54961 25.415 9.99844 25.3758C10.4508 25.3366 10.8457 25.6604 10.8855 26.1041C10.9758 27.0513 12.6926 27.5641 13.6723 26.7736C13.9242 26.5742 14.0777 26.3069 14.0777 26.0257C14.0777 24.069 9.24492 25.8563 9.24492 22.1388C9.24492 20.7894 10.3406 19.7777 11.6496 19.4804V18.9019C11.6496 18.4513 12.0117 18.0953 12.4969 18.0953V18.0987C12.9586 18.1022 13.3242 18.4709 13.3137 18.918L13.3008 19.4769C14.6168 19.7673 15.7195 20.7837 15.7195 22.1388C15.7195 22.5836 15.3539 22.9455 14.8992 22.9455C14.4469 22.9455 14.0789 22.5825 14.0789 22.1388C14.0789 21.1398 12.3012 20.5774 11.2957 21.3875C11.0437 21.5903 10.8867 21.8577 10.8867 22.1388C10.8867 24.0955 15.7195 22.3082 15.7195 26.0257C15.7195 27.3785 14.6168 28.3972 13.3008 28.6841L13.2902 29.2592C13.2902 29.7063 12.9211 30.0658 12.4699 30.0658C12.0152 30.0658 11.6496 29.7063 11.6496 29.2592V28.6807C10.4273 28.4076 9.37734 27.5018 9.25781 26.2481ZM12.4828 14.6878C17.7574 14.6878 22.0359 18.895 22.0359 24.0817C22.0359 29.2684 17.7574 33.4756 12.4828 33.4756C7.20469 33.4767 2.92969 29.2695 2.92969 24.0828C2.92969 18.895 7.20469 14.6878 12.4828 14.6878ZM18.0773 18.5816C14.9883 15.5405 9.97852 15.5405 6.88594 18.5816C3.79687 21.6191 3.79687 26.5454 6.88594 29.583C9.97852 32.6206 14.9883 32.6206 18.0773 29.583C21.1664 26.5454 21.1664 21.6191 18.0773 18.5816ZM10.609 41.5674L13.4695 38.0815C14.1609 37.2392 15.4195 37.1078 16.2727 37.7842L17.7082 38.9239L21.5754 33.1264C22.8246 31.255 25.0102 30.6443 27.1723 30.5855L40.5328 30.2133C40.5527 30.2133 40.5727 30.2133 40.5926 30.2168V30.2133C42.2238 30.2848 45.1266 29.9125 46.2199 31.1513L52.0793 26.0326C54.9129 23.5562 58.9723 27.2875 56.5934 30.1914L47.2922 41.5293C45.2332 44.038 40.7145 45.2664 37.5891 44.8054C34.902 44.4136 30.5871 44.1451 29.025 46.6838L28.5199 47.5031L30.2977 48.9147C31.1543 49.5946 31.2879 50.8322 30.6 51.6711L27.7395 55.1569C27.048 55.9993 25.7895 56.1341 24.9363 55.4543L10.9113 44.3249C10.0547 43.645 9.91875 42.4074 10.609 41.5674ZM18.9902 39.9414L27.232 46.4844L27.6211 45.8541C29.6273 42.5906 34.3945 42.7082 37.8258 43.2117C40.377 43.5874 44.3297 42.5745 46.0172 40.5199L55.3184 29.182C56.4445 27.8072 54.5109 26.066 53.1691 27.238L46.459 33.0976C45.1031 35.3839 43.6816 36.9326 42.1969 37.7427C40.5855 38.622 38.932 38.6577 37.241 37.8533C36.1875 37.5664 35.0988 37.4881 34.0324 37.6056C32.9461 37.7266 31.8832 38.0562 30.9035 38.5885C30.5086 38.8006 30.0094 38.6577 29.7902 38.2682C29.5746 37.8799 29.7199 37.389 30.116 37.1735C32.4879 35.8898 35.1281 35.6224 37.7402 36.3138C37.793 36.3265 37.8469 36.3461 37.8996 36.3726C40.9324 37.8557 43.2879 35.226 44.9953 32.3809C44.809 31.7183 42.4641 31.8185 41.8102 31.8254C41.3578 31.8324 40.923 31.8358 40.548 31.822L27.218 32.1907C25.6066 32.2334 23.8734 32.6252 22.9488 34.0103L18.9902 39.9414ZM14.7457 39.0921L11.8852 42.578C11.7621 42.7255 11.7855 42.9502 11.9379 43.0712L25.9594 54.2005C26.1117 54.3215 26.3414 54.2984 26.4645 54.1486L29.325 50.6628C29.448 50.5153 29.4246 50.2906 29.2723 50.1696L26.9707 48.3408C26.9473 48.3247 26.9238 48.3086 26.9004 48.289L17.4199 40.763C17.393 40.7469 17.3695 40.7273 17.3473 40.7077L15.2484 39.0414C15.0973 38.9181 14.8688 38.9412 14.7457 39.0921Z" fill="white" fill-opacity="0.57"/>
</svg>
