<svg width="48" height="48" viewBox="0 0 48 48" fill="none" xmlns="http://www.w3.org/2000/svg">
<path fill-rule="evenodd" clip-rule="evenodd" d="M32.1905 11.6111C30.8649 10.7332 29.3903 10.0621 27.8127 9.64424C29.2281 10.9718 30.2291 12.8311 30.9111 14.6374C31.0449 13.498 31.5028 12.4575 32.1905 11.6111ZM11.571 27.9929C14.1839 27.9929 16.3018 30.111 16.3018 32.7238C16.3018 35.3366 14.1839 37.4548 11.571 37.4548C8.9581 37.4548 6.84001 35.3367 6.84001 32.7238C6.84001 30.111 8.95806 27.9929 11.571 27.9929ZM11.571 33.3121C11.8492 33.3121 12.0742 33.5373 12.0742 33.8155C12.0742 34.0937 11.8491 34.3187 11.571 34.3187C11.2929 34.3187 11.0677 34.0936 11.0677 33.8155C11.0677 33.4906 10.8043 33.2272 10.4794 33.2272C10.1545 33.2272 9.89111 33.4906 9.89111 33.8155C9.89111 34.5179 10.3279 35.1443 10.9827 35.3893V35.5578C10.9827 35.8826 11.2461 36.1461 11.571 36.1461C11.8959 36.1461 12.1593 35.8826 12.1593 35.5578V35.3893C12.814 35.1443 13.2508 34.5179 13.2508 33.8155C13.2508 32.888 12.4984 32.1355 11.571 32.1355C11.2928 32.1355 11.0677 31.9104 11.0677 31.6323C11.0677 31.3542 11.2927 31.129 11.571 31.129C11.8492 31.129 12.0742 31.3541 12.0742 31.6323C12.0742 31.9572 12.3376 32.2206 12.6625 32.2206C12.9874 32.2206 13.2508 31.9572 13.2508 31.6323C13.2508 30.9298 12.814 30.3035 12.1593 30.0583V29.89C12.1593 29.5651 11.8958 29.3017 11.571 29.3017C11.2461 29.3017 10.9827 29.5651 10.9827 29.89V30.0583C10.3279 30.3035 9.89112 30.9298 9.89112 31.6323C9.89112 32.5598 10.6435 33.3121 11.571 33.3121ZM36.7776 15.9213C35.8501 15.9213 35.0976 15.169 35.0976 14.2415C35.0976 13.5391 35.539 12.9128 36.1893 12.6681V12.4992C36.1893 12.1743 36.4527 11.9109 36.7776 11.9109C37.1025 11.9109 37.3659 12.1743 37.3659 12.4992V12.6675C38.0167 12.9112 38.4575 13.5403 38.4575 14.2415C38.4575 14.5663 38.194 14.8298 37.8691 14.8298C37.5443 14.8298 37.2808 14.5663 37.2808 14.2415C37.2808 13.9626 37.0574 13.7381 36.7776 13.7381C36.4968 13.7381 36.2742 13.9607 36.2742 14.2415C36.2742 14.5197 36.4993 14.7447 36.7776 14.7447C37.7041 14.7447 38.4575 15.4993 38.4575 16.4247C38.4575 17.1271 38.0206 17.7534 37.3659 17.9985V18.1669C37.3659 18.4918 37.1025 18.7553 36.7776 18.7553C36.4527 18.7553 36.1893 18.4918 36.1893 18.1669V17.9979C35.5388 17.7532 35.0976 17.1292 35.0976 16.4246C35.0976 16.0998 35.3611 15.8363 35.6859 15.8363C36.0108 15.8363 36.2742 16.0998 36.2742 16.4246C36.2742 16.7044 36.4981 16.9279 36.7776 16.9279C37.0557 16.9279 37.2808 16.7028 37.2808 16.4246C37.2808 16.1457 37.0574 15.9213 36.7776 15.9213ZM36.7775 10.6021C39.3904 10.6021 41.5084 12.7203 41.5084 15.333C41.5084 17.9458 39.3904 20.064 36.7775 20.064C34.1645 20.064 32.0466 17.9459 32.0466 15.333C32.0466 12.7202 34.1647 10.6021 36.7775 10.6021ZM5.42875 30.228C5.53149 30.535 5.36583 30.8674 5.05881 30.9701C4.75182 31.0729 4.41937 30.9072 4.31663 30.6002C3.60437 28.4754 3.24237 26.2409 3.24237 24C3.24237 12.5362 12.5362 3.24237 24 3.24237C28.7255 3.24237 33.2792 4.83893 36.9675 7.79395C37.22 7.99694 37.26 8.3664 37.0571 8.6189C36.8541 8.8714 36.4846 8.91153 36.2321 8.70854C32.7467 5.9161 28.4651 4.41898 24 4.41898C13.1855 4.41898 4.41897 13.1855 4.41897 24C4.41897 26.1213 4.75448 28.2163 5.42875 30.228ZM42.7345 18.2818C43.2987 20.134 43.581 22.0641 43.581 24C43.581 34.8145 34.8145 43.581 24 43.581C19.565 43.581 15.3122 42.1047 11.8375 39.3471C11.5837 39.1454 11.2142 39.1875 11.0125 39.4412C10.8109 39.695 10.8529 40.0645 11.1067 40.2662C14.7821 43.1831 19.3085 44.7576 24 44.7576C35.4638 44.7576 44.7577 35.4637 44.7577 24C44.7577 21.9442 44.4551 19.9083 43.8559 17.9418C43.762 17.6322 43.4347 17.4572 43.1252 17.5511C42.8156 17.645 42.6406 17.9722 42.7345 18.2818ZM24.5882 9.19936C27.5662 9.69851 29.4232 13.6268 30.2311 16.2751C28.5001 16.4927 26.5952 16.6223 24.5882 16.6437V9.19936ZM24.5882 17.8203V23.4116H31.3079C31.2661 21.2661 30.997 19.2387 30.5465 17.4196C28.7203 17.6569 26.7065 17.7981 24.5882 17.8203ZM32.4846 23.4116H38.8386C38.8061 22.5792 38.705 21.7643 38.541 20.9726C37.9839 21.1466 37.3917 21.2405 36.7775 21.2405C34.8459 21.2405 33.1307 20.3129 32.0529 18.8791C32.3052 20.3102 32.4547 21.8321 32.4846 23.4116ZM24.5882 24.5882V30.1796C26.7065 30.2019 28.7203 30.3431 30.5465 30.5804C30.9968 28.7612 31.2662 26.7339 31.3079 24.5882H24.5882ZM31.7125 30.749C33.5932 31.0497 35.2392 31.4585 36.547 31.9467C37.9069 29.8037 38.7334 27.2885 38.8386 24.5882H32.4846C32.4432 26.7827 32.1705 28.8661 31.7125 30.749ZM24.5882 31.3564C26.5952 31.3777 28.5001 31.5073 30.2311 31.7249C29.4236 34.3732 27.5658 38.3015 24.5882 38.8006V31.3564ZM27.8126 38.3558C29.5819 36.6966 30.7236 34.1891 31.4053 31.89C33.1299 32.1595 34.6414 32.5187 35.8558 32.9438C33.8568 35.5897 31.0242 37.5051 27.8126 38.3558ZM20.2658 9.62347C17.0224 10.4635 14.1598 12.3881 12.1441 15.0563C13.358 15.4812 14.8687 15.8403 16.5925 16.1097C17.2601 13.8578 18.3734 11.402 20.0785 9.74617C20.1342 9.69197 20.1979 9.65107 20.2658 9.62347ZM17.7707 16.2754C19.5011 16.4929 21.4055 16.6223 23.4116 16.6437V9.19877C20.3372 9.71253 18.5751 13.6327 17.7707 16.2754ZM11.4528 16.0533C10.0929 18.1963 9.2665 20.7114 9.16128 23.4116H15.5152C15.5566 21.2155 15.8287 19.132 16.2856 17.2508C14.4058 16.9502 12.7604 16.5413 11.4528 16.0533ZM16.6921 23.4116H23.4116V17.8204C21.2939 17.7981 19.2808 17.6569 17.455 17.4198C17.0037 19.2405 16.7339 21.2678 16.6921 23.4116ZM9.16128 24.5882C9.19601 25.4787 9.30908 26.3489 9.49389 27.1924C10.14 26.9495 10.84 26.8164 11.571 26.8164C13.2664 26.8164 14.7949 27.5312 15.8723 28.6755C15.6652 27.3754 15.5421 26.005 15.5153 24.5882L9.16128 24.5882ZM17.4533 30.5804C19.2796 30.3432 21.2933 30.2019 23.4116 30.1796V24.5882H16.692C16.7337 26.7338 17.003 28.7612 17.4533 30.5804ZM16.0666 36.5555C17.3248 37.3521 18.7109 37.9648 20.1874 38.3559C18.9292 37.1759 18.0041 35.5807 17.3407 33.9954C17.1295 34.9576 16.684 35.8319 16.0666 36.5555ZM23.4116 38.8006C20.4341 38.3015 18.5763 34.3731 17.7688 31.7249C19.4997 31.5073 21.4047 31.3777 23.4116 31.3564V38.8006Z" fill="#542C85"/>
</svg>
