<svg width="48" height="48" viewBox="0 0 48 48" fill="none" xmlns="http://www.w3.org/2000/svg">
<path fill-rule="evenodd" clip-rule="evenodd" d="M9.47255 1.82391C13.6969 1.82391 17.1212 5.24834 17.1212 9.47256C17.1212 13.6968 13.6969 17.1212 9.47255 17.1212C5.24818 17.1212 1.82391 13.6969 1.82391 9.47256C1.82391 5.24818 5.24833 1.82391 9.47255 1.82391ZM31.848 26.5826C30.6564 25.3909 29.1949 24.4691 27.5631 23.9164C28.6012 25.1262 29.3079 26.6903 29.7735 28.2042C30.8829 28.0239 31.8688 27.7945 32.6912 27.5275C32.4281 27.1967 32.1465 26.8811 31.848 26.5826ZM20.4368 23.9164C18.805 24.4691 17.3435 25.3909 16.1519 26.5826C15.8534 26.8811 15.572 27.1966 15.3088 27.5275C16.1311 27.7945 17.1172 28.024 18.2264 28.2042C18.6921 26.6901 19.3985 25.1264 20.4368 23.9164ZM19.5201 28.3848C20.1075 26.5573 21.3782 23.9339 23.3531 23.4165L23.3531 28.6322C21.9978 28.6114 20.7069 28.5251 19.5201 28.3848ZM24.6468 28.6322L24.6468 23.4165C26.6221 23.9339 27.8921 26.5573 28.4798 28.3848C27.293 28.5251 26.0021 28.6114 24.6468 28.6322ZM14.538 28.6268C13.6061 30.1431 13.0284 31.9006 12.9201 33.7837L17.3502 33.7837C17.3919 32.252 17.5807 30.7925 17.8897 29.4579C16.6058 29.2428 15.4691 28.9602 14.538 28.6268ZM18.6443 33.7837L23.3531 33.7837L23.3531 29.9259C21.8739 29.9035 20.4632 29.805 19.1704 29.644C18.8704 30.9108 18.6862 32.3081 18.6443 33.7837ZM24.6468 33.7837L29.3557 33.7837C29.3138 32.3082 29.1296 30.9108 28.8295 29.644C27.5367 29.805 26.126 29.9035 24.6468 29.9259L24.6468 33.7837ZM30.6498 33.7837L35.0799 33.7837C34.9717 31.9005 34.3939 30.1431 33.462 28.6268C32.5309 28.9602 31.3944 29.2428 30.1102 29.4579C30.4193 30.7925 30.6081 32.252 30.6498 33.7837ZM12.92 35.0774C13.0282 36.9607 13.606 38.7182 14.5379 40.2345C15.4691 39.901 16.6057 39.6184 17.8897 39.4032C17.5806 38.0684 17.3919 36.6092 17.3502 35.0774L12.92 35.0774ZM19.1704 39.2172C20.4633 39.0562 21.8738 38.9576 23.3531 38.9354L23.3531 35.0774L18.6443 35.0774C18.6862 36.5529 18.8705 37.9503 19.1704 39.2172ZM24.6468 38.9354C26.1261 38.9576 27.5366 39.0562 28.8295 39.2172C29.1294 37.9503 29.3138 36.5529 29.3557 35.0774L24.6468 35.0774L24.6468 38.9354ZM30.1102 39.4032C31.3943 39.6184 32.5308 39.901 33.462 40.2345C34.3941 38.7182 34.9718 36.9607 35.08 35.0773L30.6498 35.0773C30.608 36.6091 30.4193 38.0685 30.1102 39.4032ZM15.3088 41.3338C15.572 41.6646 15.8534 41.9802 16.1519 42.2787C17.3435 43.4703 18.805 44.3922 20.4368 44.9449C19.3984 43.7347 18.6922 42.1713 18.2264 40.657C17.1171 40.8372 16.1311 41.0667 15.3088 41.3338ZM27.5631 44.9449C29.1949 44.3922 30.6564 43.4703 31.848 42.2787C32.1465 41.9802 32.4281 41.6646 32.6912 41.3338C31.8688 41.0667 30.8829 40.8372 29.7735 40.657C29.308 42.1708 28.6011 43.7352 27.5631 44.9449ZM28.4798 40.4763C27.8921 42.3039 26.6221 44.9274 24.6468 45.4448L24.6468 40.229C26.0021 40.2499 27.293 40.3361 28.4798 40.4763ZM23.3531 40.229L23.3531 45.4448C21.3782 44.9272 20.1075 42.3039 19.5201 40.4763C20.7069 40.3361 21.9978 40.2499 23.3531 40.229ZM2.61709 46.1761C2.18088 46.1761 1.82403 45.8192 1.82403 45.383L1.82403 44.0696C1.82403 43.6334 2.18089 43.2766 2.61709 43.2766L15.3215 43.2766C16.6721 44.602 18.2862 45.5853 20.0412 46.1761L2.61709 46.1761ZM27.9588 46.1761C29.7138 45.5853 31.3277 44.602 32.6784 43.2766L45.383 43.2766C45.8192 43.2766 46.1761 43.6334 46.1761 44.0696L46.1761 45.383C46.1761 45.8192 45.8192 46.1761 45.383 46.1761L27.9588 46.1761ZM3.48734 38.9959L7.99531 38.9959L7.99531 28.4453L9.65885 28.4453L5.74136 21.6602L1.82402 28.4453L3.48733 28.4453L3.48734 38.9959ZM17.9137 17.1213L20.9689 22.4127C19.0034 22.907 17.1806 23.8797 15.6597 25.2649L15.6597 23.9064L13.9964 23.9064L17.9137 17.1213ZM30.0861 12.8248L34.0036 19.6099L32.34 19.6099L32.34 25.2648C31.028 24.0698 29.4912 23.1819 27.8321 22.6433L27.8321 19.6099L26.1688 19.6099L30.0861 12.8248ZM42.2586 8.21308L46.1761 14.9981L44.5125 14.9981L44.5125 38.9959L40.0046 38.9959L40.0046 14.9981L38.3412 14.9981L42.2586 8.21308ZM9.47256 10.1194C10.2279 10.1194 10.8397 10.7312 10.8397 11.4865C10.8397 12.2419 10.2278 12.8535 9.47256 12.8535C8.71573 12.8535 8.10554 12.2436 8.10554 11.4865C8.10554 11.1293 7.81591 10.8397 7.4587 10.8397C7.10149 10.8397 6.81186 11.1293 6.81186 11.4865C6.81186 12.7103 7.64905 13.7717 8.82573 14.0674L8.82573 14.7009C8.82573 15.058 9.11536 15.3477 9.47256 15.3477C9.82977 15.3477 10.1194 15.058 10.1194 14.7009L10.1194 14.068C11.3001 13.773 12.1334 12.7077 12.1334 11.4865C12.1334 10.0174 10.9417 8.82574 9.47256 8.82574C8.71388 8.82574 8.10554 8.21744 8.10554 7.45871C8.10554 6.70365 8.71745 6.09173 9.47256 6.09173C10.2277 6.09173 10.8397 6.70354 10.8397 7.45871C10.8397 7.81592 11.1293 8.10555 11.4865 8.10555C11.8437 8.10555 12.1334 7.81592 12.1334 7.45871C12.1334 6.23753 11.3001 5.17227 10.1194 4.87729L10.1194 4.24443C10.1194 3.88722 9.82977 3.59759 9.47256 3.59759C9.11536 3.59759 8.82573 3.88722 8.82573 4.24443L8.82573 4.87741C7.64489 5.1727 6.81186 6.23731 6.81186 7.45872C6.81186 8.9243 8.0069 10.1194 9.47256 10.1194Z" fill="#542C85"/>
</svg>
