<svg width="48" height="48" viewBox="0 0 48 48" fill="none" xmlns="http://www.w3.org/2000/svg">
<path fill-rule="evenodd" clip-rule="evenodd" d="M17.418 5.3797C22.5174 5.3797 26.6513 9.51361 26.6513 14.6131C26.6513 18.518 24.2271 21.8567 20.8018 23.2067H14.0341C10.6087 21.8567 8.18457 18.518 8.18457 14.6131C8.18457 9.51361 12.3185 5.3797 17.418 5.3797ZM41.1664 36.4635C39.3482 35.8015 37.0392 35.2469 34.3862 34.841C33.3699 38.3366 31.5623 42.3072 28.6846 44.6322C33.6959 43.5076 38.1287 40.5907 41.1664 36.4635ZM41.9131 35.3804C39.996 34.6483 37.5419 34.0386 34.7212 33.5992C35.4127 30.829 35.8193 27.7433 35.8665 24.4866H45.2931C45.1748 28.4941 43.9496 32.2238 41.9131 35.3804ZM34.5863 24.4866H24.6401V32.8241C27.782 32.8492 30.7636 33.0591 33.4521 33.4163C34.1358 30.7165 34.5388 27.6912 34.5863 24.4866ZM23.36 24.4866H13.4138C13.4613 27.6912 13.8643 30.7165 14.548 33.4163C17.2365 33.0591 20.2181 32.8492 23.36 32.8241V24.4866ZM14.89 34.6609C16.0621 38.6104 18.8406 44.5526 23.36 45.1097V34.1041C20.3388 34.1285 17.4753 34.3256 14.89 34.6609ZM24.6401 45.1097V34.1041C27.6614 34.1285 30.5248 34.3256 33.1101 34.6609C31.938 38.6104 29.1596 44.5526 24.6401 45.1097ZM12.1336 24.4866H2.70703C2.82528 28.4941 4.0505 32.2238 6.087 35.3804C8.00411 34.6483 10.4582 34.0386 13.2789 33.5992C12.5875 30.829 12.1808 27.7433 12.1336 24.4866ZM6.83375 36.4635C8.65193 35.8015 10.961 35.247 13.614 34.8411C14.6304 38.3368 16.4377 42.3071 19.3155 44.6322C14.3043 43.5076 9.87143 40.5907 6.83375 36.4635ZM23.4753 23.2064H38.6049C38.9177 23.2064 39.1756 22.9486 39.1756 22.6357V19.6582C39.1756 19.3445 38.9193 19.0875 38.6049 19.0875H26.9334C26.1539 20.7422 24.9558 22.1609 23.4753 23.2064ZM24.6779 7.00931H36.4962C36.809 7.00519 37.0597 6.75144 37.0597 6.43849V3.46107C37.0597 3.14824 36.8017 2.89026 36.4889 2.89026H20.5862C20.2723 2.89026 20.0155 3.1463 20.0155 3.46107V4.42347C21.7939 4.87559 23.3914 5.78085 24.6779 7.00931ZM27.699 12.4083H38.6049C38.9177 12.4083 39.1756 12.1505 39.1756 11.8376V8.86009C39.1756 8.54641 38.9193 8.28939 38.6049 8.28939H25.8168C26.721 9.48859 27.3743 10.8877 27.699 12.4083ZM27.4365 17.8075H36.4962C36.809 17.8033 37.0597 17.5496 37.0597 17.2366V14.2591C37.0597 13.9479 36.8079 13.6926 36.4962 13.6884H27.8904C27.9171 13.993 27.9313 14.3014 27.9313 14.6131C27.9313 15.7268 27.7577 16.8001 27.4365 17.8075ZM17.418 15.2531C18.4073 15.2531 19.209 16.0548 19.209 17.0442C19.209 18.0335 18.4074 18.8354 17.418 18.8354C16.4285 18.8354 15.6269 18.0337 15.6269 17.0442C15.6269 16.6908 15.3403 16.4041 14.9869 16.4041C14.6335 16.4041 14.3468 16.6908 14.3468 17.0442C14.3468 18.4943 15.3635 19.7486 16.7779 20.0486V20.9246C16.7779 21.278 17.0645 21.5646 17.418 21.5646C17.7714 21.5646 18.058 21.278 18.058 20.9246V20.0486C19.4724 19.7486 20.4891 18.4943 20.4891 17.0442C20.4891 15.3484 19.1138 13.973 17.418 13.973C16.4286 13.973 15.6269 13.1714 15.6269 12.182C15.6269 11.1926 16.4285 10.3908 17.418 10.3908C18.4074 10.3908 19.209 11.1925 19.209 12.182C19.209 12.5354 19.4956 12.822 19.849 12.822C20.2025 12.822 20.4891 12.5354 20.4891 12.182C20.4891 10.7318 19.4724 9.47757 18.058 9.17757V8.30157C18.058 7.94816 17.7714 7.66153 17.418 7.66153C17.0645 7.66153 16.7779 7.94816 16.7779 8.30157V9.17757C15.3635 9.47757 14.3468 10.7318 14.3468 12.182C14.3468 13.8778 15.7221 15.2531 17.418 15.2531Z" fill="#542C85"/>
</svg>
