<svg width="48" height="48" viewBox="0 0 48 48" fill="none" xmlns="http://www.w3.org/2000/svg">
<path fill-rule="evenodd" clip-rule="evenodd" d="M34.499 19.8427C38.9713 19.8427 42.5967 23.4682 42.5967 27.9404C42.5967 32.4126 38.9713 36.0382 34.499 36.0382C30.0268 36.0382 26.4013 32.4127 26.4013 27.9404C26.4013 23.4681 30.0267 19.8427 34.499 19.8427ZM22.4323 24.8487L19.4822 29.9584C19.1707 29.6931 18.8109 29.4831 18.418 29.3428L21.3681 24.233C21.6796 24.4983 22.0393 24.7085 22.4323 24.8487ZM38.6398 13.9613L42.451 12.94L38.6233 19.5699C38.9917 19.7518 39.3466 19.957 39.6856 20.1841L43.5138 13.5536L44.5348 17.364C44.6224 17.6923 44.9599 17.8873 45.2882 17.7997C45.6165 17.712 45.8116 17.3745 45.7239 17.0462L44.319 11.8028C44.2313 11.4745 43.8938 11.2794 43.5655 11.3671L38.322 12.7721C37.9937 12.8598 37.7986 13.1973 37.8863 13.5256C37.974 13.8538 38.3115 14.0489 38.6398 13.9613ZM14.0594 31.4097L12.1769 30.3229C12.4415 30.0118 12.6513 29.6528 12.7913 29.2607L14.6739 30.3475C14.4092 30.6585 14.1995 31.0175 14.0594 31.4097ZM8.4328 31.3276L5.66789 36.1164C5.49776 36.4102 5.12157 36.5104 4.82782 36.3403C4.53406 36.1701 4.4338 35.794 4.60394 35.5002L7.36855 30.7119C7.68006 30.9771 8.03974 31.1874 8.4328 31.3276ZM2.25434 2.87065V45.1293C2.25434 45.4696 2.53031 45.7456 2.87066 45.7456H45.1293C45.4697 45.7456 45.7457 45.4696 45.7457 45.1293C45.7457 44.789 45.4697 44.513 45.1293 44.513H3.48696V2.87065C3.48696 2.53031 3.211 2.25433 2.87065 2.25433C2.5303 2.25433 2.25434 2.5303 2.25434 2.87065ZM34.499 28.5567C35.3379 28.5567 36.0148 29.2335 36.0148 30.0726C36.0148 30.9127 35.3392 31.5884 34.499 31.5884C33.6617 31.5884 32.9832 30.9101 32.9832 30.0726C32.9832 29.7322 32.7072 29.4563 32.3669 29.4563C32.0265 29.4563 31.7506 29.7322 31.7506 30.0726C31.7506 31.3538 32.6379 32.4663 33.8827 32.7515V33.4756C33.8827 33.816 34.1587 34.0919 34.499 34.0919C34.8394 34.0919 35.1154 33.816 35.1154 33.4756V32.7513C36.3548 32.466 37.2474 31.354 37.2474 30.0726C37.2474 28.557 36.0151 27.3241 34.499 27.3241C33.6617 27.3241 32.9832 26.6458 32.9832 25.8083C32.9832 24.9688 33.6607 24.2925 34.499 24.2925C35.3379 24.2925 36.0148 24.9693 36.0148 25.8083C36.0148 26.1487 36.2908 26.4247 36.6311 26.4247C36.9715 26.4247 37.2474 26.1487 37.2474 25.8083C37.2474 24.5251 36.3562 23.4157 35.1154 23.1297V22.4053C35.1154 22.065 34.8394 21.7889 34.4991 21.7889C34.1587 21.7889 33.8827 22.0649 33.8827 22.4053V23.1297C32.6419 23.4156 31.7506 24.5248 31.7506 25.8083C31.7506 27.326 32.9814 28.5567 34.499 28.5567ZM9.57831 25.9356C10.7814 25.9356 11.7567 26.911 11.7567 28.1141C11.7567 29.3171 10.7814 30.2925 9.57831 30.2925C8.37526 30.2925 7.39986 29.3171 7.39986 28.1141C7.39986 26.911 8.37522 25.9356 9.57831 25.9356ZM17.2725 30.3779C18.4757 30.3779 19.4511 31.3532 19.4511 32.5563C19.4511 33.7594 18.4757 34.7348 17.2725 34.7348C16.0693 34.7348 15.0941 33.7594 15.0941 32.5563C15.0941 31.3532 16.0694 30.3779 17.2725 30.3779ZM23.5778 19.4567C24.7809 19.4567 25.7563 20.432 25.7563 21.6352C25.7563 22.8384 24.7809 23.8136 23.5778 23.8136C22.3747 23.8136 21.3994 22.8383 21.3994 21.6352C21.3994 20.4321 22.3748 19.4567 23.5778 19.4567Z" fill="#542C85"/>
</svg>
