<svg width="17" height="17" viewBox="0 0 17 17" fill="none" xmlns="http://www.w3.org/2000/svg">
<path d="M13.259 3.28906H6.06421C4.27414 3.28906 3.28906 4.27414 3.28906 6.06421V13.259C3.28906 15.0491 4.27414 16.0342 6.06421 16.0342H13.259C15.0491 16.0342 16.0342 15.0491 16.0342 13.259V6.06421C16.0342 4.27414 15.0491 3.28906 13.259 3.28906ZM14.8008 13.259C14.8008 14.3543 14.3543 14.8008 13.259 14.8008H6.06421C4.96895 14.8008 4.52246 14.3543 4.52246 13.259V6.06421C4.52246 4.96895 4.96895 4.52246 6.06421 4.52246H13.259C14.3543 4.52246 14.8008 4.96895 14.8008 6.06421V13.259ZM1.2334 2.77103V9.97409C1.2334 10.9592 1.63063 11.2017 1.76137 11.2823C2.05245 11.4599 2.14274 11.8398 1.96513 12.1301C1.84836 12.32 1.6462 12.4244 1.43816 12.4244C1.3288 12.4244 1.21688 12.3948 1.11656 12.334C0.375701 11.8801 0 11.0866 0 9.97409V2.77103C0 1.00974 1.01066 0 2.77113 0H9.97399C11.3595 0 12.0215 0.607631 12.334 1.11661C12.5116 1.40687 12.4203 1.78676 12.13 1.96437C11.8389 2.14281 11.4607 2.05072 11.2823 1.76046C11.2025 1.62972 10.9591 1.2326 9.97399 1.2326H2.77113C1.67916 1.23342 1.2334 1.67906 1.2334 2.77103Z" fill="white"/>
</svg>
