<svg width="28" height="28" viewBox="0 0 28 28" fill="none" xmlns="http://www.w3.org/2000/svg">
<path opacity="0.4" d="M24.8641 13.5622C24.8641 19.9081 19.6257 25.0381 13.2402 24.8596C7.344 24.6946 2.42997 19.7803 2.26496 13.8842C2.08639 7.49864 7.21629 2.26035 13.5623 2.26035C15.3446 2.26035 17.0353 2.67857 18.5373 3.41771C18.6763 3.48665 18.7441 3.64149 18.7159 3.79406C18.5961 4.43714 18.6232 5.12423 18.8854 5.85659C19.2595 6.89862 20.0823 7.75982 21.1085 8.17573C21.8985 8.49557 22.6387 8.53507 23.327 8.40736C23.4807 8.37911 23.6367 8.44812 23.7056 8.58713C24.4459 10.0903 24.8641 11.7799 24.8641 13.5622Z" fill="white"/>
<path d="M7.91126 16.6702C7.69426 16.6702 7.47727 16.5878 7.31226 16.4216C6.98112 16.0905 6.98112 15.5536 7.31226 15.2225L10.4666 12.0681C11.2374 11.2973 12.4919 11.2973 13.2627 12.067L15.0585 13.8583C15.1693 13.9679 15.3478 13.9679 15.4586 13.8583L18.6152 10.7017C18.9463 10.3706 19.4832 10.3706 19.8143 10.7017C20.1455 11.0329 20.1455 11.5697 19.8143 11.9009L16.6577 15.0575C15.8881 15.8282 14.6324 15.8293 13.8617 15.0586L12.0658 13.2673C11.955 13.1565 11.7765 13.1565 11.6657 13.2673L8.51139 16.4216C8.34525 16.5878 8.12825 16.6702 7.91126 16.6702Z" fill="white"/>
<path d="M22.6037 6.78107C23.8521 6.78107 24.864 5.76907 24.864 4.52071C24.864 3.27234 23.8521 2.26035 22.6037 2.26035C21.3553 2.26035 20.3433 3.27234 20.3433 4.52071C20.3433 5.76907 21.3553 6.78107 22.6037 6.78107Z" fill="white"/>
</svg>
