<svg width="23" height="23" viewBox="0 0 23 23" fill="none" xmlns="http://www.w3.org/2000/svg">
<path d="M13.3027 18.0545C13.3027 18.7539 13.4727 19.4172 13.7749 20.0044C13.8747 20.1992 13.7502 20.4301 13.5317 20.4301H10.452H6.65103C4.47498 20.4301 3.3252 19.2899 3.3252 17.1233C3.3252 14.7002 4.69354 11.878 8.5515 11.878H10.452H12.3525C14.2548 11.878 15.5538 12.566 16.3767 13.5504C16.505 13.7044 16.4166 13.9315 16.2266 13.9942C14.5228 14.5558 13.3027 16.1579 13.3027 18.0545ZM10.4606 9.97751C12.5568 9.97751 14.2615 8.27279 14.2615 6.17656C14.2615 4.08034 12.5568 2.37561 10.4606 2.37561C8.36434 2.37561 6.65961 4.08034 6.65961 6.17656C6.65961 8.27279 8.36434 9.97751 10.4606 9.97751ZM19.9544 17.3419H18.7666V16.1541C18.7666 15.7607 18.4473 15.4414 18.0539 15.4414C17.6605 15.4414 17.3412 15.7607 17.3412 16.1541V17.3419H16.1534C15.76 17.3419 15.4407 17.6611 15.4407 18.0545C15.4407 18.4479 15.76 18.7672 16.1534 18.7672H17.3412V19.955C17.3412 20.3484 17.6605 20.6677 18.0539 20.6677C18.4473 20.6677 18.7666 20.3484 18.7666 19.955V18.7672H19.9544C20.3478 18.7672 20.667 18.4479 20.667 18.0545C20.667 17.6611 20.3478 17.3419 19.9544 17.3419Z" fill="white"/>
</svg>
