<svg width="63" height="63" viewBox="0 0 63 63" fill="none" xmlns="http://www.w3.org/2000/svg">
<path d="M45.9464 5.20139H16.4728C10.6941 5.20139 7.80469 8.09077 7.80469 13.8695V39.8764C7.80469 45.6551 10.6941 48.5445 16.4728 48.5445H20.3738C21.7392 48.5445 23.024 49.1869 23.8406 50.2791L27.7416 55.4805C29.4763 57.7925 32.943 57.7925 34.6776 55.4805L38.5787 50.2791C39.3979 49.1869 40.6826 48.5445 42.0454 48.5445H45.9464C51.7252 48.5445 54.6146 45.6551 54.6146 39.8764V13.8695C54.6146 8.09077 51.7252 5.20139 45.9464 5.20139ZM31.2084 13.0035C34.4332 13.0035 37.0599 15.6275 37.0599 18.855C37.0599 22.0825 34.4332 24.7066 31.2084 24.7066C27.9835 24.7066 25.3568 22.0825 25.3568 18.855C25.3568 15.6275 27.9835 13.0035 31.2084 13.0035ZM36.3942 41.611H25.999C22.691 41.611 20.7926 39.723 20.7926 36.4331C20.7926 32.8234 22.8367 28.6076 28.5946 28.6076H33.796C39.5539 28.6076 41.5981 32.8234 41.5981 36.4331C41.5981 39.723 39.7022 41.611 36.3942 41.611Z" fill="white"/>
</svg>
